# AST/ASF file generated using VICON BodyLanguage
# -----------------------------------------------
:version 1.10
:name VICON
:units
  mass 1.0
  length 0.45
  angle deg
:documentation
   .ast/.asf automatically generated from VICON data using
   VICON BodyBuilder and BodyLanguage model FoxedUp or BRILLIANT.MOD
:root
   order TX TY TZ RX RY RZ
   axis XYZ
   position 0 0 0  
   orientation 0 0 0 
:bonedata
  begin
     id 1 
     name lhipjoint
     direction 0.440178 -0.822639 0.359871 
     length 2.53113 
     axis 0 0 0  XYZ
  end
  begin
     id 2 
     name lfemur
     direction 0.34202 -0.939693 0  
     length 7.88132  
     axis 0 0 20  XYZ
    dof rx ry rz
    limits (-160.0 20.0)
           (-70.0 70.0)
           (-60.0 70.0)
  end
  begin
     id 3 
     name ltibia
     direction 0.34202 -0.939693 0   
     length 8.43783   
     axis 0 0 20   XYZ
    dof rx
    limits (-10.0 170.0)
  end
  begin
     id 4 
     name lfoot
     direction 0.0886351 -0.243523 0.965837   
     length 2.63414   
     axis -90 7.62852e-016 20   XYZ
    dof rx rz
    limits (-45.0 90.0)
           (-70.0 20.0)
  end
  begin
     id 5 
     name ltoes
     direction 1.53703e-011 -4.21717e-011 1   
     length 1.31427   
     axis -90 7.62852e-016 20   XYZ
    dof rx
    limits (-90.0 20.0)
  end
  begin
     id 6 
     name rhipjoint
     direction -0.399779 -0.839773 0.367367   
     length 2.47948  
     axis 0 0 0  XYZ 
  end
  begin
     id 7 
     name rfemur
     direction -0.34202 -0.939693 0   
     length 7.74806   
     axis 0 0 -20   XYZ
    dof rx ry rz
    limits (-160.0 20.0)
           (-70.0 70.0)
           (-70.0 60.0)
  end
  begin
     id 8 
     name rtibia
     direction -0.34202 -0.939693 0   
     length 8.74432   
     axis 0 0 -20   XYZ
    dof rx
    limits (-10.0 170.0)
 end
 begin
     id 9 
     name rfoot
     direction -0.108514 -0.298139 0.948334   
     length 2.66102  
     axis -90 -7.62852e-016 -20   XYZ
    dof rx rz
    limits (-45.0 90.0)
           (-20.0 70.0)
  end
  begin
     id 10 
     name rtoes
     direction -1.53392e-011 -4.22077e-011 1   
     length 1.31983   
     axis -90 -7.62852e-016 -20   XYZ
    dof rx
    limits (-90.0 20.0)
  end
  begin
     id 11 
     name lowerback
     direction 0.0113257 0.999866 0.0118602   
     length 2.58694   
     axis 0 0 0   XYZ
    dof rx ry rz
    limits (-20.0 45.0)
           (-30.0 30.0)
           (-30.0 30.0)
  end
  begin
     id 12 
     name upperback
     direction -0.0164747 0.995193 -0.0965375   
     length 2.52368   
     axis 0 0 0   XYZ
    dof rx ry rz
    limits (-20.0 45.0)
           (-30.0 30.0)
           (-30.0 30.0)
  end
  begin
     id 13 
     name thorax
     direction -0.0194301 0.99433 -0.104552   
     length 2.56099   
     axis 0 0 0   XYZ
    dof rx ry rz
    limits (-20.0 45.0)
           (-30.0 30.0)
           (-30.0 30.0)
  end
  begin
     id 14 
     name lowerneck
     direction 0.0148543 0.995587 -0.092657   
     length 1.71582   
     axis 0 0 0   XYZ
    dof rx ry rz
    limits (-20.0 45.0)
           (-30.0 30.0)
           (-30.0 30.0)
  end
  begin
     id 15 
     name upperneck
     direction -0.0135467 0.993656 -0.111639   
     length 1.68937   
     axis 0 0 0   XYZ
    dof rx ry rz
    limits (-20.0 45.0)
           (-30.0 30.0)
           (-30.0 30.0)
  end
  begin
     id 16
     name head
     direction -0.00615349 0.999547 -0.029448  
     length 1.7462  
     axis 0 0 0   XYZ
    dof rx ry rz
    limits (-20.0 45.0)
           (-30.0 30.0)
           (-30.0 30.0)
  end
  begin
     id 17 
     name lclavicle
     direction 0.988267 0.149885 0.0293713  
     length 4.47222  
     axis 0 0 0   XYZ
    dof ry rz
    limits (-20.0 10.0)
           (0.0 20.0)
  end
  begin
     id 18 
     name lhumerus
     direction 1 -4.48986e-011 -1.14833e-027   
     length 5.37148   
     axis 180 -30 -90   XYZ
    dof rx ry rz
    limits (-60.0 90.0)
           (-90.0 90.0)
           (-90.0 90.0)
  end
  begin
     id 19
     name lradius
     direction 0.999998 0.00170963 -0.000987055   
     length 3.94212   
     axis 180 -30 -90   XYZ
    dof rx
    limits (-10.0 170.0)
  end
  begin
     id 20
     name lwrist
     direction 0.999998 7.53149e-005 -0.00194706   
     length 1.97106   
     axis 4.65056e-015 90 90   XYZ
    dof ry
    limits (-180.0 0.0)
 end
  begin
     id 21 
     name lhand
     direction 1 -4.48973e-011 -1.31746e-026   
     length 1.17917   
     axis 8.4065e-015 90 90   XYZ
    dof rx rz
    limits (-90.0 90.0)
           (-45.0 45.0)
  end
  begin
     id 22 
     name lfingers
     direction 1 -4.49107e-011 -2.63492e-026   
     length 0.950679   
     axis 1.6813e-014 90 90   XYZ
    dof rx
    limits (0.0 90.0)
  end
  begin
     id 23
     name lthumb
     direction 0.707107 -6.35048e-011 0.707107   
     length 1.36499   
     axis -90 45 2.85299e-015   XYZ
    dof rx rz
    limits (-45.0 45.0)
           (-45.0 45.0)
  end
  begin
     id 24 
     name rclavicle
     direction -0.996699 0.0642895 -0.0495725   
     length 4.62611  
     axis 0 0 0   XYZ 
    dof ry rz
    limits (-10.0 20.0)
           (-20.0 0.0)
  end
  begin
     id 25 
     name rhumerus
     direction -1 -4.48919e-011 -2.41059e-027  
     length 5.4981   
     axis 180 30 90   XYZ
    dof rx ry rz
    limits (-90.0 60.0)
           (-90.0 90.0)
           (-90.0 90.0)
  end
  begin
     id 26 
     name rradius
     direction -0.999999 0.00118101 -0.000681858   
     length 3.48381   
     axis 180 30 90   XYZ
    dof rx
    limits (-10.0 170.0)
  end
  begin
     id 27 
     name rwrist
     direction -0.999999 0.000321823 -0.00132288   
     length 1.7419   
     axis 4.65056e-015 -90 -90   XYZ
    dof ry
    limits (-180.0 0.0)
  end
  begin
     id 28
     name rhand
     direction -1 -4.49022e-011 -1.31746e-026   
     length 1.34932   
     axis 8.4065e-015 -90 -90   XYZ
    dof rx rz
    limits (-90.0 90.0)
           (-45.0 45.0)
  end
  begin
     id 29
     name rfingers
     direction -1 -4.49178e-011 -2.63492e-026   
     length 1.08785   
     axis 1.6813e-014 -90 -90   XYZ
    dof rx
    limits (0.0 90.0)
  end
  begin
     id 30
     name rthumb
     direction -0.707107 -6.34713e-011 0.707107   
     length 1.56195   
     axis -90 -45 -2.85299e-015   XYZ
    dof rx rz
    limits (-45.0 45.0)
           (-45.0 45.0)
  end
:hierarchy
  begin
    root lhipjoint rhipjoint lowerback
    lhipjoint lfemur
    lfemur ltibia
    ltibia lfoot
    lfoot ltoes
    rhipjoint rfemur
    rfemur rtibia
    rtibia rfoot
    rfoot rtoes
    lowerback upperback
    upperback thorax
    thorax lowerneck lclavicle rclavicle
    lowerneck upperneck
    upperneck head
    lclavicle lhumerus
    lhumerus lradius
    lradius lwrist
    lwrist lhand lthumb
    lhand lfingers
    rclavicle rhumerus
    rhumerus rradius
    rradius rwrist
    rwrist rhand rthumb
    rhand rfingers
  end

#!OML:ASF X:\für Bonn\!DataBase\2005_08_10_Bjorn_Final\c3d\bjorn.ASF
:FULLY-SPECIFIED
:DEGREES
1
root 31.3612 18.7462 -0.281931 190.539 -3.67485 -179.071
lowerback -4.02568 1.43993 0.715158
upperback 7.07954 1.60339 -1.26889
thorax 9.81871 0.732212 -1.5782
lowerneck -1.04779 4.62605 4.01152
upperneck 5.15748 6.30523 -6.86742
head 2.2202 3.03009 -2.77307
rclavicle -3.77691e-015 3.97569e-015
rhumerus -32.4397 -6.5963 -95.6462
rradius 47.7751
rwrist -4.64214
rhand -12.6368 11.3794
rfingers 7.12502
rthumb 13.4433 -18.1668
lclavicle -3.77691e-015 3.97569e-015
lhumerus -42.2095 -16.2236 97.2703
lradius 54.2244
lwrist -8.33669
lhand -22.0007 -12.9685
lfingers 7.12502
lthumb 4.40808 16.9657
rfemur -16.5621 -3.7965 14.1393
rtibia 39.3126
rfoot -25.4505 13.8731
rtoes -12.8883
lfemur -16.6759 8.49085 -23.072
ltibia 36.9663
lfoot -25.4626 -7.4082
ltoes 3.34026
2
root 31.3244 18.7308 -0.352358 190.438 -3.76787 -179.151
lowerback -3.90407 1.51666 0.501589
upperback 7.19278 1.71653 -1.37692
thorax 9.87225 0.769053 -1.56267
lowerneck -0.999155 4.72508 3.85007
upperneck 4.73472 6.4303 -6.75477
head 2.06732 3.10325 -2.70309
rclavicle -3.37934e-014 -5.56597e-015
rhumerus -32.5359 -6.22161 -95.961
rradius 48.7785
rwrist -4.67423
rhand -12.7647 11.8283
rfingers 7.12502
rthumb 13.32 -17.726
lclavicle -3.37934e-014 -5.56597e-015
lhumerus -42.4341 -16.333 97.1938
lradius 54.3652
lwrist -7.90852
lhand -21.95 -13.0228
lfingers 7.12502
lthumb 4.45706 16.9103
rfemur -16.7609 -3.68538 13.9891
rtibia 40.4429
rfoot -25.5069 13.527
rtoes -13.8146
lfemur -16.2296 8.69973 -23.1918
ltibia 36.8678
lfoot -25.7057 -7.58904
ltoes 2.8435
3
root 31.2871 18.7161 -0.423266 190.342 -3.89084 -179.217
lowerback -3.76238 1.59287 0.34748
upperback 7.28757 1.82609 -1.50967
thorax 9.8962 0.809812 -1.6079
lowerneck -0.86799 4.80812 3.81144
upperneck 4.25661 6.53259 -6.71238
head 1.88933 3.16785 -2.68305
rclavicle 8.34896e-015 -2.42517e-014
rhumerus -32.5384 -5.97842 -96.338
rradius 49.5334
rwrist -4.66318
rhand -12.9518 12.4158
rfingers 7.12502
rthumb 13.1397 -17.1502
lclavicle 8.34896e-015 -2.42517e-014
lhumerus -42.6865 -16.7638 97.0258
lradius 54.5489
lwrist -7.22853
lhand -22.0035 -13.1034
lfingers 7.12502
lthumb 4.40534 16.8308
rfemur -17.0288 -3.56718 13.8694
rtibia 41.6517
rfoot -25.5279 13.1546
rtoes -14.6238
lfemur -15.8178 8.69456 -23.2958
ltibia 36.8133
lfoot -25.938 -7.61008
ltoes 2.40545
4
root 31.2502 18.6997 -0.494675 190.228 -3.99454 -179.321
lowerback -3.59652 1.66222 0.129738
upperback 7.39411 1.92744 -1.63026
thorax 9.91544 0.839928 -1.60654
lowerneck -0.721742 4.89588 3.73576
upperneck 3.75792 6.64044 -6.68033
head 1.70228 3.23428 -2.6611
rclavicle 3.06128e-014 -1.78906e-014
rhumerus -32.4338 -5.64497 -96.6344
rradius 50.1076
rwrist -4.67446
rhand -13.1755 13.0404
rfingers 7.12502
rthumb 12.924 -16.5394
lclavicle 3.06128e-014 -1.78906e-014
lhumerus -42.9432 -16.9514 96.9135
lradius 54.7082
lwrist -6.77305
lhand -22.014 -13.2329
lfingers 7.12502
lthumb 4.39523 16.7015
rfemur -17.3547 -3.4396 13.6989
rtibia 42.9343
rfoot -25.4417 12.9076
rtoes -15.2513
lfemur -15.4026 8.68285 -23.4447
ltibia 36.7994
lfoot -26.1683 -7.6352
ltoes 2.08718
5
root 31.213 18.6819 -0.56548 190.109 -4.09248 -179.403
lowerback -3.41133 1.74783 -0.0300614
upperback 7.50814 2.04395 -1.76449
thorax 9.93486 0.88151 -1.6513
lowerneck -0.62131 4.97188 3.73957
upperneck 3.25753 6.7313 -6.68564
head 1.52796 3.29192 -2.6666
rclavicle -3.97569e-016 8.34896e-015
rhumerus -32.405 -5.4171 -96.9319
rradius 50.681
rwrist -4.60712
rhand -13.401 13.7491
rfingers 7.12502
rthumb 12.7066 -15.8443
lclavicle -3.97569e-016 8.34896e-015
lhumerus -43.0792 -17.3598 96.773
lradius 54.8204
lwrist -6.12387
lhand -22.1478 -13.3705
lfingers 7.12502
lthumb 4.26603 16.5665
rfemur -17.748 -3.3558 13.5507
rtibia 44.28
rfoot -25.2177 12.776
rtoes -15.9377
lfemur -15.0086 8.58839 -23.5841
ltibia 36.8295
lfoot -26.4361 -7.47917
ltoes 1.27055
6
root 31.1752 18.6616 -0.634655 189.983 -4.21609 -179.531
lowerback -3.18063 1.82142 -0.223628
upperback 7.617 2.14403 -1.89644
thorax 9.91913 0.911722 -1.67821
lowerneck -0.47128 5.03357 3.75779
upperneck 2.75183 6.8026 -6.73472
head 1.34562 3.33925 -2.69208
rclavicle 3.33958e-014 -9.54166e-015
rhumerus -32.3353 -5.14962 -97.1895
rradius 51.1259
rwrist -4.56169
rhand -13.6589 14.4241
rfingers 7.12502
rthumb 12.4579 -15.1846
lclavicle 3.33958e-014 -9.54166e-015
lhumerus -43.2072 -17.7033 96.6432
lradius 54.9205
lwrist -5.52103
lhand -22.2653 -13.6792
lfingers 7.12502
lthumb 4.15263 16.2601
rfemur -18.1955 -3.30514 13.3497
rtibia 45.6952
rfoot -24.8776 12.7444
rtoes -16.1705
lfemur -14.6299 8.42283 -23.7761
ltibia 36.9016
lfoot -26.6647 -7.34864
ltoes 0.680116
7
root 31.1379 18.6396 -0.704527 189.812 -4.31117 -179.633
lowerback -2.89817 1.90437 -0.370555
upperback 7.73913 2.24802 -2.04002
thorax 9.88999 0.946291 -1.74512
lowerneck -0.308147 5.10484 3.73825
upperneck 2.2011 6.884 -6.75689
head 1.14528 3.39214 -2.70325
rclavicle -1.59028e-014 1.47101e-014
rhumerus -32.2301 -4.93322 -97.4585
rradius 51.4819
rwrist -4.55002
rhand -13.8118 14.987
rfingers 7.12502
rthumb 12.3105 -14.6306
lclavicle -1.59028e-014 1.47101e-014
lhumerus -43.2401 -18.0458 96.5038
lradius 54.8367
lwrist -5.03075
lhand -22.4612 -14.0927
lfingers 7.12502
lthumb 3.96341 15.8502
rfemur -18.67 -3.30206 13.1712
rtibia 47.1715
rfoot -24.4581 12.8203
rtoes -16.6199
lfemur -14.2227 8.21835 -23.9399
ltibia 37.0188
lfoot -26.8504 -7.16947
ltoes 0.153681
8
root 31.0997 18.6145 -0.772738 189.644 -4.4241 -179.756
lowerback -2.58957 1.97884 -0.547376
upperback 7.86059 2.33868 -2.16697
thorax 9.84192 0.970803 -1.78039
lowerneck -0.139854 5.15411 3.72183
upperneck 1.64716 6.93455 -6.8191
head 0.94413 3.4286 -2.73041
rclavicle 1.64991e-014 -3.1408e-014
rhumerus -32.1333 -4.71445 -97.6421
rradius 51.7537
rwrist -4.51806
rhand -13.7631 15.2066
rfingers 7.12502
rthumb 12.3576 -14.4081
lclavicle 1.64991e-014 -3.1408e-014
lhumerus -43.1697 -18.7542 96.3278
lradius 54.7308
lwrist -4.2709
lhand -22.7362 -14.5002
lfingers 7.12502
lthumb 3.69784 15.4474
rfemur -19.2487 -3.33321 12.9675
rtibia 48.7226
rfoot -23.9939 13.0452
rtoes -16.8035
lfemur -13.8277 7.94536 -24.1433
ltibia 37.1565
lfoot -27.0023 -6.90292
ltoes -0.647936
